<svg xmlns="http://www.w3.org/2000/svg" xmlns:xlink="http://www.w3.org/1999/xlink" id="_&#x56FE;&#x5C42;_1" viewBox="0 0 3860.08 3860.08"><defs><style>.cls-1{fill:url(#_未命名的渐变_5);}.cls-2{fill:url(#_未命名的渐变_4);}</style><radialGradient id="_&#x672A;&#x547D;&#x540D;&#x7684;&#x6E10;&#x53D8;_5" cx="6608.75" cy="2949.89" fx="6608.75" fy="2949.89" r="1" gradientTransform="translate(-5691468.39 -12745026.58) rotate(90) scale(1928.8 -1930.04)" gradientUnits="userSpaceOnUse"><stop offset=".53" stop-color="#fff"></stop><stop offset=".69" stop-color="#fff"></stop><stop offset="1" stop-color="#fff" stop-opacity="0"></stop></radialGradient><radialGradient id="_&#x672A;&#x547D;&#x540D;&#x7684;&#x6E10;&#x53D8;_4" cx="6608.75" cy="2949.89" fx="6608.75" fy="2949.89" r="1" gradientTransform="translate(-5689637.97 -12753222.39) rotate(90) scale(1930.04 -1929.42)" gradientUnits="userSpaceOnUse"><stop offset=".53" stop-color="#fff"></stop><stop offset=".69" stop-color="#fff"></stop><stop offset="1" stop-color="#fff" stop-opacity="0"></stop></radialGradient></defs><path class="cls-1" d="M3860.08,2286.87l-1929.15-356.99-.56,.1v.06s.1,.8,.1,.8l1043.23,1928h-773.82l-269.41-1928-.18-.33-288.74,1928.33H892.17L1930.04,1930.04,0,2269.51v-696.94l1929.85,357.11L886.38,1.24h774.46l269.46,1928.33,.19-.36L2219.18,1.24h748.73L1930.49,1929.21l-.09,.58,.53,.09,1929.15-339.31v696.3Z"></path><path class="cls-2" d="M0,0L1929.42,1930.04l.61-.28L3858.84,.64V1025.32l-1928.81,904.44-.39,.38,1929.2,905.26v1024.68L1929.58,1930.2,0,3860.08v-1025.32l1929.42-904.72L0,1024.68V0Z"></path></svg>